<svg id="white" xmlns="http://www.w3.org/2000/svg" viewBox="0 0 734.44 597.88"><defs><style>.cls-1{fill:#0abffd;}</style></defs><title>dashboard_v3</title><path class="cls-1" d="M536.06,397.26V472H418V397.26h118m0-5H418a5,5,0,0,0-5,5V472a5,5,0,0,0,5,5h118a5,5,0,0,0,5-5V397.26a5,5,0,0,0-5-5Z" transform="translate(-92.26 -83.42)"/><path class="cls-1" d="M446.18,463.38h-8.06a7.5,7.5,0,0,1-7.5-7.5V424.65a7.5,7.5,0,0,1,7.5-7.5h8.06a7.51,7.51,0,0,1,7.5,7.5v31.23A7.51,7.51,0,0,1,446.18,463.38Zm-8.06-41.23a2.5,2.5,0,0,0-2.5,2.5v31.23a2.5,2.5,0,0,0,2.5,2.5h8.06a2.51,2.51,0,0,0,2.5-2.5V424.65a2.51,2.51,0,0,0-2.5-2.5Z" transform="translate(-92.26 -83.42)"/><path class="cls-1" d="M482.29,463.38h-8.06a7.51,7.51,0,0,1-7.5-7.5v-9.39a7.52,7.52,0,0,1,7.5-7.5h8.06a7.52,7.52,0,0,1,7.5,7.5v9.39A7.51,7.51,0,0,1,482.29,463.38ZM474.23,444a2.51,2.51,0,0,0-2.5,2.5v9.39a2.5,2.5,0,0,0,2.5,2.5h8.06a2.5,2.5,0,0,0,2.5-2.5v-9.39a2.51,2.51,0,0,0-2.5-2.5Z" transform="translate(-92.26 -83.42)"/><path class="cls-1" d="M518.4,463.38h-8a7.5,7.5,0,0,1-7.5-7.5V432.12a7.5,7.5,0,0,1,7.5-7.5h8a7.5,7.5,0,0,1,7.5,7.5v23.76A7.5,7.5,0,0,1,518.4,463.38Zm-8-33.76a2.5,2.5,0,0,0-2.5,2.5v23.76a2.5,2.5,0,0,0,2.5,2.5h8a2.5,2.5,0,0,0,2.5-2.5V432.12a2.5,2.5,0,0,0-2.5-2.5Z" transform="translate(-92.26 -83.42)"/><path class="cls-1" d="M626.33,533.82V614H463.53V533.82h162.8m0-5H463.53a5,5,0,0,0-5,5V614a5,5,0,0,0,5,5h162.8a5,5,0,0,0,5-5V533.82a5,5,0,0,0-5-5Z" transform="translate(-92.26 -83.42)"/><path class="cls-1" d="M489.32,553.68v43.61H479.07V553.68h10.25m0-5H479.07a5,5,0,0,0-5,5v43.61a5,5,0,0,0,5,5h10.25a5,5,0,0,0,5-5V553.68a5,5,0,0,0-5-5Z" transform="translate(-92.26 -83.42)"/><path class="cls-1" d="M529.81,575.47v21.82H519.56V575.47h10.25m0-5H519.56a5,5,0,0,0-5,5v21.82a5,5,0,0,0,5,5h10.25a5,5,0,0,0,5-5V575.47a5,5,0,0,0-5-5Z" transform="translate(-92.26 -83.42)"/><path class="cls-1" d="M570.3,565.94v31.35H560.05V565.94H570.3m0-5H560.05a5,5,0,0,0-5,5v31.35a5,5,0,0,0,5,5H570.3a5,5,0,0,0,5-5V565.94a5,5,0,0,0-5-5Z" transform="translate(-92.26 -83.42)"/><path class="cls-1" d="M610.79,590.89h0v6.4H600.55v-6.4h10.24m0-5H600.55a5,5,0,0,0-5,5v6.4a5,5,0,0,0,5,5h10.24a5,5,0,0,0,5-5v-6.4a5,5,0,0,0-5-5Z" transform="translate(-92.26 -83.42)"/><path class="cls-1" d="M309.9,158.13V304.76H205V158.13H309.9m2-5H203a3,3,0,0,0-3,3V306.76a3,3,0,0,0,3,3H311.9a3,3,0,0,0,3-3V156.13a3,3,0,0,0-3-3Z" transform="translate(-92.26 -83.42)"/><path class="cls-1" d="M296.89,201.32H238.14a5.51,5.51,0,0,1-5.5-5.5V180.06a5.51,5.51,0,0,1,5.5-5.5h58.75a5.5,5.5,0,0,1,5.5,5.5v15.76A5.5,5.5,0,0,1,296.89,201.32Zm-58.75-21.76a.51.51,0,0,0-.5.5v15.76a.51.51,0,0,0,.5.5h58.75a.51.51,0,0,0,.5-.5V180.06a.51.51,0,0,0-.5-.5Z" transform="translate(-92.26 -83.42)"/><path class="cls-1" d="M278.83,244.82H238.14a5.51,5.51,0,0,1-5.5-5.5V223.57a5.51,5.51,0,0,1,5.5-5.5h40.69a5.5,5.5,0,0,1,5.5,5.5v15.75A5.5,5.5,0,0,1,278.83,244.82Zm-40.69-21.75a.51.51,0,0,0-.5.5v15.75a.51.51,0,0,0,.5.5h40.69a.5.5,0,0,0,.5-.5V223.57a.5.5,0,0,0-.5-.5Z" transform="translate(-92.26 -83.42)"/><path class="cls-1" d="M270,288.33H238.14a5.51,5.51,0,0,1-5.5-5.5V267.07a5.51,5.51,0,0,1,5.5-5.5H270a5.51,5.51,0,0,1,5.5,5.5v15.76A5.51,5.51,0,0,1,270,288.33Zm-31.82-21.76a.51.51,0,0,0-.5.5v15.76a.51.51,0,0,0,.5.5H270a.51.51,0,0,0,.5-.5V267.07a.51.51,0,0,0-.5-.5Z" transform="translate(-92.26 -83.42)"/><rect class="cls-1" x="122.73" y="95.55" width="9.69" height="19.5" rx="2.38"/><rect class="cls-1" x="122.73" y="138.27" width="9.69" height="19.5" rx="2.38"/><rect class="cls-1" x="122.73" y="181" width="9.69" height="19.5" rx="2.38"/><circle class="cls-1" cx="233.16" cy="43.34" r="8.1"/><circle class="cls-1" cx="59.5" cy="75.99" r="4.48"/><circle class="cls-1" cx="35.98" cy="4.72" r="2.24"/><circle class="cls-1" cx="7.61" cy="17.93" r="2.24"/><circle class="cls-1" cx="84.43" cy="250.08" r="8.34"/><circle class="cls-1" cx="502.4" cy="282.48" r="8.34"/><circle class="cls-1" cx="459.7" cy="17.47" r="8.34"/><circle class="cls-1" cx="706.99" cy="412.12" r="8.34"/><circle class="cls-1" cx="598.83" cy="440.4" r="8.34"/><circle class="cls-1" cx="589.38" cy="475.64" r="4.17"/><circle class="cls-1" cx="657.41" cy="580.53" r="4.17"/><circle class="cls-1" cx="716.93" cy="552.08" r="6.39"/><circle class="cls-1" cx="507.88" cy="379.82" r="4.17"/><circle class="cls-1" cx="544.5" cy="552.7" r="4.17"/><circle class="cls-1" cx="558.62" cy="513.93" r="7.19"/><circle class="cls-1" cx="709.5" cy="461.5" r="4.17"/><circle class="cls-1" cx="720.72" cy="63.1" r="8.34"/><circle class="cls-1" cx="249" cy="252.71" r="9.1"/><circle class="cls-1" cx="227.4" cy="275.5" r="3.96"/><circle class="cls-1" cx="63.39" cy="236.32" r="3.96"/><circle class="cls-1" cx="33.74" cy="100.05" r="6.32"/><circle class="cls-1" cx="24.35" cy="358.07" r="3.96"/><circle class="cls-1" cx="301.45" cy="261.81" r="3.96"/><circle class="cls-1" cx="493.57" cy="117.84" r="3.96"/><circle class="cls-1" cx="286.49" cy="47.82" r="3.96"/><circle class="cls-1" cx="572.35" cy="10.43" r="3.96"/><circle class="cls-1" cx="355.42" cy="25.64" r="3.96"/><circle class="cls-1" cx="207.63" cy="25.81" r="3.96"/><circle class="cls-1" cx="475.16" cy="51.45" r="3.96"/><circle class="cls-1" cx="550.95" cy="37.17" r="3.96"/><circle class="cls-1" cx="528.76" cy="63.1" r="3.96"/><circle class="cls-1" cx="729.06" cy="5.97" r="4.9"/><circle class="cls-1" cx="240.55" cy="375.86" r="3.96"/><circle class="cls-1" cx="260.11" cy="438.05" r="3.96"/><circle class="cls-1" cx="80.37" cy="584.29" r="3.96"/><circle class="cls-1" cx="470.99" cy="554.64" r="3.96"/><circle class="cls-1" cx="313.19" cy="465.46" r="3.96"/><circle class="cls-1" cx="380.93" cy="553.77" r="3.96"/><circle class="cls-1" cx="78.44" cy="409.32" r="5.16"/><circle class="cls-1" cx="173.54" cy="427.05" r="7.04"/><circle class="cls-1" cx="172.05" cy="584.29" r="7.04"/><circle class="cls-1" cx="294.41" cy="420" r="7.04"/><circle class="cls-1" cx="15.23" cy="409.31" r="5.16"/><path class="cls-1" d="M331.76,503.4a10.64,10.64,0,1,1,10.64-10.64A10.65,10.65,0,0,1,331.76,503.4Zm0-16.27a5.64,5.64,0,1,0,5.64,5.63A5.64,5.64,0,0,0,331.76,487.13Z" transform="translate(-92.26 -83.42)"/><path class="cls-1" d="M108.41,389A10.64,10.64,0,1,1,119,378.35,10.65,10.65,0,0,1,108.41,389Zm0-16.27a5.64,5.64,0,1,0,5.63,5.64A5.65,5.65,0,0,0,108.41,372.71Z" transform="translate(-92.26 -83.42)"/><path class="cls-1" d="M567.43,514a10.64,10.64,0,1,1,10.63-10.64A10.65,10.65,0,0,1,567.43,514Zm0-16.27a5.64,5.64,0,1,0,5.63,5.63A5.64,5.64,0,0,0,567.43,497.72Z" transform="translate(-92.26 -83.42)"/><path class="cls-1" d="M367.64,376.53a10.64,10.64,0,1,1,10.64-10.63A10.64,10.64,0,0,1,367.64,376.53Zm0-16.27a5.64,5.64,0,1,0,5.64,5.64A5.64,5.64,0,0,0,367.64,360.26Z" transform="translate(-92.26 -83.42)"/><path class="cls-1" d="M397.52,113.54a9.12,9.12,0,1,1,9.12-9.12A9.13,9.13,0,0,1,397.52,113.54Zm0-13.24a4.12,4.12,0,1,0,4.12,4.12A4.12,4.12,0,0,0,397.52,100.3Z" transform="translate(-92.26 -83.42)"/><path class="cls-1" d="M432.17,656a10.64,10.64,0,1,1,10.64-10.63A10.64,10.64,0,0,1,432.17,656Zm0-16.27a5.64,5.64,0,1,0,5.64,5.64A5.64,5.64,0,0,0,432.17,639.69Z" transform="translate(-92.26 -83.42)"/><path class="cls-1" d="M108.41,662.84A10.64,10.64,0,1,1,119,652.2,10.65,10.65,0,0,1,108.41,662.84Zm0-16.27A5.64,5.64,0,1,0,114,652.2,5.64,5.64,0,0,0,108.41,646.57Z" transform="translate(-92.26 -83.42)"/><path class="cls-1" d="M378.75,186.67A10.71,10.71,0,1,1,389.46,176,10.71,10.71,0,0,1,378.75,186.67Zm0-16.41a5.71,5.71,0,1,0,5.71,5.71A5.71,5.71,0,0,0,378.75,170.26Z" transform="translate(-92.26 -83.42)"/><path class="cls-1" d="M594.66,178a13.73,13.73,0,1,1,13.72-13.72A13.74,13.74,0,0,1,594.66,178Zm0-22.45a8.73,8.73,0,1,0,8.72,8.73A8.74,8.74,0,0,0,594.66,155.51Z" transform="translate(-92.26 -83.42)"/><path class="cls-1" d="M813,331.11a13.73,13.73,0,1,1,13.72-13.73A13.75,13.75,0,0,1,813,331.11Zm0-22.45a8.73,8.73,0,1,0,8.72,8.72A8.74,8.74,0,0,0,813,308.66Z" transform="translate(-92.26 -83.42)"/><circle class="cls-1" cx="51.91" cy="263.88" r="5.47"/><circle class="cls-1" cx="8.42" cy="131.97" r="5.47"/><circle class="cls-1" cx="200.01" cy="478.78" r="5.47"/><circle class="cls-1" cx="453.48" cy="587.29" r="5.47"/><circle class="cls-1" cx="303.57" cy="576.92" r="8.23"/><circle class="cls-1" cx="279.95" cy="548.08" r="4.12"/><path class="cls-1" d="M341.27,214.63a2.5,2.5,0,0,1-2.5-2.5V172.72a2.5,2.5,0,0,1,5,0v39.41A2.5,2.5,0,0,1,341.27,214.63Z" transform="translate(-92.26 -83.42)"/><path class="cls-1" d="M341.27,250.23a2.49,2.49,0,0,1-2.5-2.5v-9.51a2.5,2.5,0,0,1,5,0v9.51A2.49,2.49,0,0,1,341.27,250.23Z" transform="translate(-92.26 -83.42)"/><path class="cls-1" d="M106.16,264a2.49,2.49,0,0,1-2.5-2.5V252a2.5,2.5,0,0,1,5,0v9.51A2.5,2.5,0,0,1,106.16,264Z" transform="translate(-92.26 -83.42)"/><path class="cls-1" d="M341.27,308.12a2.49,2.49,0,0,1-2.5-2.5V276.11a2.5,2.5,0,0,1,5,0v29.51A2.49,2.49,0,0,1,341.27,308.12Z" transform="translate(-92.26 -83.42)"/><path class="cls-1" d="M594.66,352.35a2.49,2.49,0,0,1-2.5-2.5v-9.51a2.5,2.5,0,0,1,5,0v9.51A2.5,2.5,0,0,1,594.66,352.35Z" transform="translate(-92.26 -83.42)"/><path class="cls-1" d="M594.66,295.72a2.49,2.49,0,0,1-2.5-2.5V283.7a2.5,2.5,0,1,1,5,0v9.52A2.5,2.5,0,0,1,594.66,295.72Z" transform="translate(-92.26 -83.42)"/><path class="cls-1" d="M594.66,256.32a2.49,2.49,0,0,1-2.5-2.5V224.31a2.5,2.5,0,0,1,5,0v29.51A2.49,2.49,0,0,1,594.66,256.32Z" transform="translate(-92.26 -83.42)"/><path class="cls-1" d="M813,183.76a2.5,2.5,0,0,1-2.5-2.5v-9.51a2.5,2.5,0,0,1,5,0v9.51A2.5,2.5,0,0,1,813,183.76Z" transform="translate(-92.26 -83.42)"/><path class="cls-1" d="M813,233.76a2.5,2.5,0,0,1-2.5-2.5V201.75a2.5,2.5,0,0,1,5,0v29.51A2.5,2.5,0,0,1,813,233.76Z" transform="translate(-92.26 -83.42)"/><path class="cls-1" d="M307.51,338.63H281.39a2.5,2.5,0,0,1,0-5h26.12a2.5,2.5,0,0,1,0,5Z" transform="translate(-92.26 -83.42)"/><path class="cls-1" d="M425.69,368.4H399.58a2.5,2.5,0,0,1,0-5h26.11a2.5,2.5,0,0,1,0,5Z" transform="translate(-92.26 -83.42)"/><path class="cls-1" d="M291.23,495.23H275.12a2.5,2.5,0,0,1,0-5h16.11a2.5,2.5,0,0,1,0,5Z" transform="translate(-92.26 -83.42)"/><path class="cls-1" d="M383.62,405h-22a2.5,2.5,0,0,1,0-5h22a2.5,2.5,0,0,1,0,5Z" transform="translate(-92.26 -83.42)"/><path class="cls-1" d="M377.56,416.48H361.65a2.5,2.5,0,0,1,0-5h15.91a2.5,2.5,0,0,1,0,5Z" transform="translate(-92.26 -83.42)"/><path class="cls-1" d="M370.53,428h-8.88a2.5,2.5,0,0,1,0-5h8.88a2.5,2.5,0,0,1,0,5Z" transform="translate(-92.26 -83.42)"/><path class="cls-1" d="M806.92,100h-22a2.5,2.5,0,0,1,0-5h22a2.5,2.5,0,0,1,0,5Z" transform="translate(-92.26 -83.42)"/><path class="cls-1" d="M800.86,111.56H784.94a2.5,2.5,0,0,1,0-5h15.92a2.5,2.5,0,0,1,0,5Z" transform="translate(-92.26 -83.42)"/><path class="cls-1" d="M793.83,123.08h-8.89a2.5,2.5,0,0,1,0-5h8.89a2.5,2.5,0,0,1,0,5Z" transform="translate(-92.26 -83.42)"/><path class="cls-1" d="M395.56,587.07h-22a2.5,2.5,0,0,1,0-5h22a2.5,2.5,0,1,1,0,5Z" transform="translate(-92.26 -83.42)"/><path class="cls-1" d="M395.56,598.6H379.65a2.5,2.5,0,0,1,0-5h15.91a2.5,2.5,0,1,1,0,5Z" transform="translate(-92.26 -83.42)"/><path class="cls-1" d="M395.56,610.13h-8.88a2.5,2.5,0,1,1,0-5h8.88a2.5,2.5,0,1,1,0,5Z" transform="translate(-92.26 -83.42)"/><path class="cls-1" d="M332.78,403a2.5,2.5,0,0,1-2.5-2.5V374.43a2.5,2.5,0,0,1,5,0v26.11A2.49,2.49,0,0,1,332.78,403Z" transform="translate(-92.26 -83.42)"/><path class="cls-1" d="M170.71,384.68a2.5,2.5,0,0,1-2.5-2.5V356.07a2.5,2.5,0,0,1,5,0v26.11A2.5,2.5,0,0,1,170.71,384.68Z" transform="translate(-92.26 -83.42)"/><path class="cls-1" d="M170.71,455.47a2.5,2.5,0,0,1-2.5-2.5V406.85a2.5,2.5,0,0,1,5,0V453A2.5,2.5,0,0,1,170.71,455.47Z" transform="translate(-92.26 -83.42)"/><path class="cls-1" d="M108.41,630.69a2.5,2.5,0,0,1-2.5-2.5V602.07a2.5,2.5,0,0,1,5,0v26.12A2.5,2.5,0,0,1,108.41,630.69Z" transform="translate(-92.26 -83.42)"/><path class="cls-1" d="M108.41,584a2.5,2.5,0,0,1-2.5-2.5V565.35a2.5,2.5,0,0,1,5,0v16.11A2.5,2.5,0,0,1,108.41,584Z" transform="translate(-92.26 -83.42)"/><path class="cls-1" d="M108.41,528.06a2.5,2.5,0,0,1-2.5-2.5V509.45a2.5,2.5,0,0,1,5,0v16.11A2.5,2.5,0,0,1,108.41,528.06Z" transform="translate(-92.26 -83.42)"/><path class="cls-1" d="M170.69,477.29a2.5,2.5,0,0,1-2.5-2.5v-8.88a2.5,2.5,0,0,1,5,0v8.88A2.5,2.5,0,0,1,170.69,477.29Z" transform="translate(-92.26 -83.42)"/><path class="cls-1" d="M332.82,442.18a2.5,2.5,0,0,1-2.5-2.5v-13.6a2.5,2.5,0,0,1,5,0v13.6A2.5,2.5,0,0,1,332.82,442.18Z" transform="translate(-92.26 -83.42)"/><path class="cls-1" d="M100.27,422.54a2.5,2.5,0,0,1-2.5-2.5V406.45a2.5,2.5,0,0,1,5,0V420A2.5,2.5,0,0,1,100.27,422.54Z" transform="translate(-92.26 -83.42)"/><path class="cls-1" d="M386.67,484.87a2.49,2.49,0,0,1-2.5-2.5V468.78a2.5,2.5,0,0,1,5,0v13.59A2.49,2.49,0,0,1,386.67,484.87Z" transform="translate(-92.26 -83.42)"/><path class="cls-1" d="M386.67,458.87a2.49,2.49,0,0,1-2.5-2.5v-3.59a2.5,2.5,0,0,1,5,0v3.59A2.49,2.49,0,0,1,386.67,458.87Z" transform="translate(-92.26 -83.42)"/><path class="cls-1" d="M432.17,585.91a2.5,2.5,0,0,1-2.5-2.5V569.82a2.5,2.5,0,0,1,5,0v13.59A2.5,2.5,0,0,1,432.17,585.91Z" transform="translate(-92.26 -83.42)"/><path class="cls-1" d="M432.17,624.91a2.5,2.5,0,0,1-2.5-2.5V603.82a2.5,2.5,0,0,1,5,0v18.59A2.5,2.5,0,0,1,432.17,624.91Z" transform="translate(-92.26 -83.42)"/><path class="cls-1" d="M432.17,559.91a2.5,2.5,0,0,1-2.5-2.5v-3.59a2.5,2.5,0,0,1,5,0v3.59A2.5,2.5,0,0,1,432.17,559.91Z" transform="translate(-92.26 -83.42)"/><path class="cls-1" d="M126,476.44a2.5,2.5,0,0,1-2.5-2.5v-3.59a2.5,2.5,0,0,1,5,0v3.59A2.5,2.5,0,0,1,126,476.44Z" transform="translate(-92.26 -83.42)"/><path class="cls-1" d="M386.67,438.87a2.49,2.49,0,0,1-2.5-2.5V422.78a2.5,2.5,0,0,1,5,0v13.59A2.49,2.49,0,0,1,386.67,438.87Z" transform="translate(-92.26 -83.42)"/><path class="cls-1" d="M567.43,379.35a2.5,2.5,0,0,1-2.5-2.5v-3.59a2.5,2.5,0,0,1,5,0v3.59A2.5,2.5,0,0,1,567.43,379.35Z" transform="translate(-92.26 -83.42)"/><path class="cls-1" d="M799.25,364.39a2.5,2.5,0,0,1-2.5-2.5V358.3a2.5,2.5,0,1,1,5,0v3.59A2.5,2.5,0,0,1,799.25,364.39Z" transform="translate(-92.26 -83.42)"/><path class="cls-1" d="M799.25,390.39a2.5,2.5,0,0,1-2.5-2.5V374.3a2.5,2.5,0,1,1,5,0v13.59A2.5,2.5,0,0,1,799.25,390.39Z" transform="translate(-92.26 -83.42)"/><path class="cls-1" d="M799.25,450.39a2.5,2.5,0,0,1-2.5-2.5V414.3a2.5,2.5,0,1,1,5,0v33.59A2.5,2.5,0,0,1,799.25,450.39Z" transform="translate(-92.26 -83.42)"/><path class="cls-1" d="M567.43,404.35a2.5,2.5,0,0,1-2.5-2.5V388.26a2.5,2.5,0,0,1,5,0v13.59A2.5,2.5,0,0,1,567.43,404.35Z" transform="translate(-92.26 -83.42)"/><path class="cls-1" d="M567.43,446.35a2.5,2.5,0,0,1-2.5-2.5V420.26a2.5,2.5,0,0,1,5,0v23.59A2.5,2.5,0,0,1,567.43,446.35Z" transform="translate(-92.26 -83.42)"/><path class="cls-1" d="M657.64,519.17a2.49,2.49,0,0,1-2.5-2.5v-3.59a2.5,2.5,0,1,1,5,0v3.59A2.49,2.49,0,0,1,657.64,519.17Z" transform="translate(-92.26 -83.42)"/><path class="cls-1" d="M657.64,552.17a2.49,2.49,0,0,1-2.5-2.5V531.08a2.5,2.5,0,0,1,5,0v18.59A2.49,2.49,0,0,1,657.64,552.17Z" transform="translate(-92.26 -83.42)"/><path class="cls-1" d="M811.14,589.77a2.5,2.5,0,0,1-2.5-2.5V568.68a2.5,2.5,0,0,1,5,0v18.59A2.5,2.5,0,0,1,811.14,589.77Z" transform="translate(-92.26 -83.42)"/><path class="cls-1" d="M621,387.89a2.5,2.5,0,0,1-2.5-2.5V351.8a2.5,2.5,0,1,1,5,0v33.59A2.5,2.5,0,0,1,621,387.89Z" transform="translate(-92.26 -83.42)"/><path class="cls-1" d="M621,417.89a2.5,2.5,0,0,1-2.5-2.5V401.8a2.5,2.5,0,1,1,5,0v13.59A2.5,2.5,0,0,1,621,417.89Z" transform="translate(-92.26 -83.42)"/><path class="cls-1" d="M621,457.89a2.5,2.5,0,0,1-2.5-2.5V431.8a2.5,2.5,0,1,1,5,0v23.59A2.5,2.5,0,0,1,621,457.89Z" transform="translate(-92.26 -83.42)"/><path class="cls-1" d="M567.43,469.35a2.5,2.5,0,0,1-2.5-2.5v-3.59a2.5,2.5,0,0,1,5,0v3.59A2.5,2.5,0,0,1,567.43,469.35Z" transform="translate(-92.26 -83.42)"/><path class="cls-1" d="M267.15,637.3a2.5,2.5,0,0,1-2.5-2.5V608.69a2.5,2.5,0,0,1,5,0V634.8A2.5,2.5,0,0,1,267.15,637.3Z" transform="translate(-92.26 -83.42)"/><path class="cls-1" d="M267.15,594a2.5,2.5,0,0,1-2.5-2.5v-8.88a2.5,2.5,0,0,1,5,0v8.88A2.5,2.5,0,0,1,267.15,594Z" transform="translate(-92.26 -83.42)"/><path class="cls-1" d="M267.15,545.89a2.5,2.5,0,0,1-2.5-2.5v-13.6a2.5,2.5,0,0,1,5,0v13.6A2.5,2.5,0,0,1,267.15,545.89Z" transform="translate(-92.26 -83.42)"/><path class="cls-1" d="M256.35,338.63h-10.9a2.5,2.5,0,1,1,0-5h10.9a2.5,2.5,0,0,1,0,5Z" transform="translate(-92.26 -83.42)"/><path class="cls-1" d="M126,349.8h-10.9a2.5,2.5,0,0,1,0-5H126a2.5,2.5,0,1,1,0,5Z" transform="translate(-92.26 -83.42)"/><path class="cls-1" d="M229.78,338.63H211.15a2.5,2.5,0,1,1,0-5h18.63a2.5,2.5,0,0,1,0,5Z" transform="translate(-92.26 -83.42)"/><path class="cls-1" d="M243.52,129.26H200a2.5,2.5,0,0,1,0-5h43.54a2.5,2.5,0,1,1,0,5Z" transform="translate(-92.26 -83.42)"/><path class="cls-1" d="M282.21,129.26H266.63a2.5,2.5,0,0,1,0-5h15.58a2.5,2.5,0,1,1,0,5Z" transform="translate(-92.26 -83.42)"/><path class="cls-1" d="M459,166.74H443.42a2.5,2.5,0,0,1,0-5H459a2.5,2.5,0,0,1,0,5Z" transform="translate(-92.26 -83.42)"/><path class="cls-1" d="M567.55,166.74H552a2.5,2.5,0,0,1,0-5h15.58a2.5,2.5,0,0,1,0,5Z" transform="translate(-92.26 -83.42)"/><path class="cls-1" d="M524.45,166.74H488.87a2.5,2.5,0,0,1,0-5h35.58a2.5,2.5,0,0,1,0,5Z" transform="translate(-92.26 -83.42)"/><path class="cls-1" d="M247.67,495.26H209a2.5,2.5,0,1,1,0-5h38.63a2.5,2.5,0,0,1,0,5Z" transform="translate(-92.26 -83.42)"/><path class="cls-1" d="M257.2,654H218.58a2.5,2.5,0,0,1,0-5H257.2a2.5,2.5,0,1,1,0,5Z" transform="translate(-92.26 -83.42)"/><path class="cls-1" d="M195.59,654H177a2.5,2.5,0,0,1,0-5h18.63a2.5,2.5,0,1,1,0,5Z" transform="translate(-92.26 -83.42)"/><path class="cls-1" d="M144.59,654H136a2.5,2.5,0,0,1,0-5h8.63a2.5,2.5,0,1,1,0,5Z" transform="translate(-92.26 -83.42)"/><path class="cls-1" d="M144.45,495.23H125.82a2.5,2.5,0,1,1,0-5h18.63a2.5,2.5,0,1,1,0,5Z" transform="translate(-92.26 -83.42)"/><path class="cls-1" d="M147.14,446.93H135.3a2.5,2.5,0,0,1,0-5h11.84a2.5,2.5,0,0,1,0,5Z" transform="translate(-92.26 -83.42)"/><path class="cls-1" d="M141.22,452.85a2.5,2.5,0,0,1-2.5-2.5V438.5a2.5,2.5,0,0,1,5,0v11.85A2.5,2.5,0,0,1,141.22,452.85Z" transform="translate(-92.26 -83.42)"/><path class="cls-1" d="M106.61,315.74H94.76a2.5,2.5,0,1,1,0-5h11.85a2.5,2.5,0,1,1,0,5Z" transform="translate(-92.26 -83.42)"/><path class="cls-1" d="M100.69,321.66a2.5,2.5,0,0,1-2.5-2.5V307.32a2.5,2.5,0,0,1,5,0v11.84A2.5,2.5,0,0,1,100.69,321.66Z" transform="translate(-92.26 -83.42)"/><path class="cls-1" d="M321.63,525.93H309.78a2.5,2.5,0,0,1,0-5h11.85a2.5,2.5,0,0,1,0,5Z" transform="translate(-92.26 -83.42)"/><path class="cls-1" d="M315.7,531.85a2.5,2.5,0,0,1-2.5-2.5V517.5a2.5,2.5,0,0,1,5,0v11.85A2.5,2.5,0,0,1,315.7,531.85Z" transform="translate(-92.26 -83.42)"/><path class="cls-1" d="M600.14,421H588.3a2.5,2.5,0,0,1,0-5h11.84a2.5,2.5,0,0,1,0,5Z" transform="translate(-92.26 -83.42)"/><path class="cls-1" d="M594.22,426.89a2.5,2.5,0,0,1-2.5-2.5V412.54a2.5,2.5,0,1,1,5,0v11.85A2.5,2.5,0,0,1,594.22,426.89Z" transform="translate(-92.26 -83.42)"/><path class="cls-1" d="M818.91,471.7H807.06a2.5,2.5,0,0,1,0-5h11.85a2.5,2.5,0,0,1,0,5Z" transform="translate(-92.26 -83.42)"/><path class="cls-1" d="M813,477.62a2.5,2.5,0,0,1-2.5-2.5V463.27a2.5,2.5,0,0,1,5,0v11.85A2.5,2.5,0,0,1,813,477.62Z" transform="translate(-92.26 -83.42)"/><path class="cls-1" d="M413.8,629.06H402a2.5,2.5,0,0,1,0-5H413.8a2.5,2.5,0,0,1,0,5Z" transform="translate(-92.26 -83.42)"/><path class="cls-1" d="M407.87,635a2.5,2.5,0,0,1-2.5-2.5V620.64a2.5,2.5,0,0,1,5,0v11.85A2.5,2.5,0,0,1,407.87,635Z" transform="translate(-92.26 -83.42)"/><path class="cls-1" d="M146.89,670.2H135a2.5,2.5,0,1,1,0-5h11.85a2.5,2.5,0,0,1,0,5Z" transform="translate(-92.26 -83.42)"/><path class="cls-1" d="M141,676.13a2.5,2.5,0,0,1-2.5-2.5V661.78a2.5,2.5,0,0,1,5,0v11.85A2.5,2.5,0,0,1,141,676.13Z" transform="translate(-92.26 -83.42)"/><path class="cls-1" d="M581.48,660.53H569.64a2.5,2.5,0,0,1,0-5h11.84a2.5,2.5,0,0,1,0,5Z" transform="translate(-92.26 -83.42)"/><path class="cls-1" d="M575.56,666.45a2.5,2.5,0,0,1-2.5-2.5V652.11a2.5,2.5,0,0,1,5,0V664A2.5,2.5,0,0,1,575.56,666.45Z" transform="translate(-92.26 -83.42)"/><path class="cls-1" d="M792.6,598.58H780.75a2.5,2.5,0,0,1,0-5H792.6a2.5,2.5,0,0,1,0,5Z" transform="translate(-92.26 -83.42)"/><path class="cls-1" d="M786.67,604.5a2.5,2.5,0,0,1-2.5-2.5V590.15a2.5,2.5,0,0,1,5,0V602A2.5,2.5,0,0,1,786.67,604.5Z" transform="translate(-92.26 -83.42)"/><path class="cls-1" d="M382.38,223.81H370.54a2.5,2.5,0,0,1,0-5h11.84a2.5,2.5,0,0,1,0,5Z" transform="translate(-92.26 -83.42)"/><path class="cls-1" d="M376.46,229.73a2.5,2.5,0,0,1-2.5-2.5V215.39a2.5,2.5,0,1,1,5,0v11.84A2.5,2.5,0,0,1,376.46,229.73Z" transform="translate(-92.26 -83.42)"/><path class="cls-1" d="M475.56,143.78H463.71a2.5,2.5,0,0,1,0-5h11.85a2.5,2.5,0,0,1,0,5Z" transform="translate(-92.26 -83.42)"/><path class="cls-1" d="M469.63,149.71a2.5,2.5,0,0,1-2.5-2.5V135.36a2.5,2.5,0,0,1,5,0v11.85A2.5,2.5,0,0,1,469.63,149.71Z" transform="translate(-92.26 -83.42)"/><path class="cls-1" d="M142.89,126.4H131a2.5,2.5,0,0,1,0-5h11.85a2.5,2.5,0,0,1,0,5Z" transform="translate(-92.26 -83.42)"/><path class="cls-1" d="M137,132.32a2.49,2.49,0,0,1-2.5-2.5V118a2.5,2.5,0,1,1,5,0v11.84A2.49,2.49,0,0,1,137,132.32Z" transform="translate(-92.26 -83.42)"/><path class="cls-1" d="M253.71,94.34H241.87a2.5,2.5,0,0,1,0-5h11.84a2.5,2.5,0,0,1,0,5Z" transform="translate(-92.26 -83.42)"/><path class="cls-1" d="M247.79,100.26a2.49,2.49,0,0,1-2.5-2.5V85.92a2.5,2.5,0,1,1,5,0V97.76A2.49,2.49,0,0,1,247.79,100.26Z" transform="translate(-92.26 -83.42)"/><path class="cls-1" d="M175.23,202.91a2.49,2.49,0,0,1-2.5-2.5V162.72a2.5,2.5,0,0,1,5,0v37.69A2.5,2.5,0,0,1,175.23,202.91Z" transform="translate(-92.26 -83.42)"/><path class="cls-1" d="M173.88,261.25a2.49,2.49,0,0,1-2.5-2.5V238.22a2.5,2.5,0,0,1,5,0v20.53A2.5,2.5,0,0,1,173.88,261.25Z" transform="translate(-92.26 -83.42)"/><path class="cls-1" d="M173.88,309.37a2.49,2.49,0,0,1-2.5-2.5V286.35a2.5,2.5,0,0,1,5,0v20.52A2.5,2.5,0,0,1,173.88,309.37Z" transform="translate(-92.26 -83.42)"/><circle class="cls-1" cx="11.89" cy="41.78" r="8.78"/><path class="cls-1" d="M205.23,110.89a2.48,2.48,0,0,1-1.75-.71,59.79,59.79,0,0,0-9.62-7.6,2.5,2.5,0,1,1,2.67-4.22A64,64,0,0,1,207,106.6a2.5,2.5,0,0,1-1.74,4.29Z" transform="translate(-92.26 -83.42)"/><path class="cls-1" d="M181.1,96.35a2.53,2.53,0,0,1-.77-.12A59.44,59.44,0,0,0,170,93.87a2.5,2.5,0,1,1,.68-5,64.56,64.56,0,0,1,11.23,2.57,2.5,2.5,0,0,1-.77,4.87Z" transform="translate(-92.26 -83.42)"/><path class="cls-1" d="M170.3,93.89l-.34,0c-1.89-.26-3.82-.43-5.73-.51a2.5,2.5,0,1,1,.2-5c2.07.08,4.15.26,6.21.54a2.5,2.5,0,0,1-.34,5Z" transform="translate(-92.26 -83.42)"/><path class="cls-1" d="M131,101.61a2.5,2.5,0,0,1-1.26-4.67,64.49,64.49,0,0,1,21.64-7.76,2.5,2.5,0,1,1,.82,4.94,59.13,59.13,0,0,0-20,7.15A2.44,2.44,0,0,1,131,101.61Z" transform="translate(-92.26 -83.42)"/><path class="cls-1" d="M116.34,113.27a2.51,2.51,0,0,1-1.83-4.2,63.12,63.12,0,0,1,5.92-5.64,2.5,2.5,0,0,1,3.21,3.84,60.88,60.88,0,0,0-5.46,5.19A2.47,2.47,0,0,1,116.34,113.27Z" transform="translate(-92.26 -83.42)"/><path class="cls-1" d="M100.21,161.91a2.5,2.5,0,0,1-2.48-2.24,64.33,64.33,0,0,1,.49-17.14,2.5,2.5,0,1,1,4.93.8,59.9,59.9,0,0,0-.45,15.82,2.49,2.49,0,0,1-2.23,2.74Z" transform="translate(-92.26 -83.42)"/><path class="cls-1" d="M107.47,185.12a2.52,2.52,0,0,1-2.2-1.3,65.87,65.87,0,0,1-4.7-10.85,2.5,2.5,0,1,1,4.75-1.56,59.85,59.85,0,0,0,4.34,10,2.5,2.5,0,0,1-1,3.39A2.47,2.47,0,0,1,107.47,185.12Z" transform="translate(-92.26 -83.42)"/><path class="cls-1" d="M126,207a2.54,2.54,0,0,1-1.43-.45c-1.35-.94-2.68-1.94-3.95-3a2.5,2.5,0,1,1,3.16-3.87c1.17.95,2.4,1.88,3.65,2.75A2.5,2.5,0,0,1,126,207Z" transform="translate(-92.26 -83.42)"/><path class="cls-1" d="M146.69,215.54a2.64,2.64,0,0,1-.62-.08,65.28,65.28,0,0,1-12.88-4.76,2.5,2.5,0,1,1,2.22-4.48,60.4,60.4,0,0,0,11.89,4.4,2.5,2.5,0,0,1-.61,4.92Z" transform="translate(-92.26 -83.42)"/><circle class="cls-1" cx="584.43" cy="556.92" r="6.46"/><path class="cls-1" d="M607.47,648.14a2.52,2.52,0,0,1-1.71-.67,47.44,47.44,0,0,1-6.49-7.51,2.5,2.5,0,1,1,4.1-2.86,42.74,42.74,0,0,0,5.81,6.72,2.5,2.5,0,0,1-1.71,4.32Z" transform="translate(-92.26 -83.42)"/><path class="cls-1" d="M624.22,658.15a2.45,2.45,0,0,1-.8-.14,48.29,48.29,0,0,1-7.87-3.45,2.5,2.5,0,0,1,2.4-4.38,42.93,42.93,0,0,0,7.06,3.09,2.5,2.5,0,0,1-.79,4.88Z" transform="translate(-92.26 -83.42)"/><path class="cls-1" d="M628.46,659.35a2.22,2.22,0,0,1-.57-.07c-1.51-.35-3-.78-4.47-1.27a2.5,2.5,0,0,1,1.59-4.74c1.31.44,2.66.83,4,1.14a2.5,2.5,0,0,1-.56,4.94Z" transform="translate(-92.26 -83.42)"/><path class="cls-1" d="M638.76,660.53l-1.17,0a2.5,2.5,0,0,1,.06-5h.06a42.71,42.71,0,0,0,15.18-2.39,2.5,2.5,0,1,1,1.65,4.73A48.07,48.07,0,0,1,638.76,660.53Z" transform="translate(-92.26 -83.42)"/><path class="cls-1" d="M661,654.71a2.5,2.5,0,0,1-1.22-4.68,42.18,42.18,0,0,0,4.59-2.95,2.5,2.5,0,1,1,3,4,49.06,49.06,0,0,1-5.12,3.3A2.57,2.57,0,0,1,661,654.71Z" transform="translate(-92.26 -83.42)"/><path class="cls-1" d="M681.65,630.5a2.55,2.55,0,0,1-.86-.15,2.49,2.49,0,0,1-1.49-3.21,43.1,43.1,0,0,0,2.47-11.2,2.5,2.5,0,1,1,5,.42,48.39,48.39,0,0,1-2.75,12.5A2.51,2.51,0,0,1,681.65,630.5Z" transform="translate(-92.26 -83.42)"/><path class="cls-1" d="M684.05,609a2.5,2.5,0,0,1-2.48-2.18,42.19,42.19,0,0,0-1.73-7.72,2.5,2.5,0,0,1,4.76-1.53,47.58,47.58,0,0,1,1.93,8.61,2.5,2.5,0,0,1-2.16,2.8Z" transform="translate(-92.26 -83.42)"/><path class="cls-1" d="M674.21,585.07a2.51,2.51,0,0,1-1.92-.89c-.71-.85-1.46-1.68-2.22-2.46a2.5,2.5,0,0,1,3.57-3.5c.85.88,1.69,1.8,2.48,2.74a2.51,2.51,0,0,1-.31,3.53A2.46,2.46,0,0,1,674.21,585.07Z" transform="translate(-92.26 -83.42)"/><path class="cls-1" d="M666.39,578.49a2.51,2.51,0,0,1-1.51-.5,43,43,0,0,0-7.86-4.75,2.5,2.5,0,1,1,2.12-4.53,49.14,49.14,0,0,1,8.77,5.29,2.5,2.5,0,0,1-1.52,4.49Z" transform="translate(-92.26 -83.42)"/><path class="cls-1" d="M142.24,245.17V260H131V245.17h11.24m0-5H131a5,5,0,0,0-5,5V260a5,5,0,0,0,5,5h11.24a5,5,0,0,0,5-5V245.17a5,5,0,0,0-5-5Z" transform="translate(-92.26 -83.42)"/><path class="cls-1" d="M175.92,126.74v14.83H164.68V126.74h11.24m0-5H164.68a5,5,0,0,0-5,5v14.83a5,5,0,0,0,5,5h11.24a5,5,0,0,0,5-5V126.74a5,5,0,0,0-5-5Z" transform="translate(-92.26 -83.42)"/><path class="cls-1" d="M483.88,97.94v14.83H472.64V97.94h11.24m0-5H472.64a5,5,0,0,0-5,5v14.83a5,5,0,0,0,5,5h11.24a5,5,0,0,0,5-5V97.94a5,5,0,0,0-5-5Z" transform="translate(-92.26 -83.42)"/><path class="cls-1" d="M142.24,280.54v6.33H131v-6.33h11.24m0-5H131a5,5,0,0,0-5,5v6.33a5,5,0,0,0,5,5h11.24a5,5,0,0,0,5-5v-6.33a5,5,0,0,0-5-5Z" transform="translate(-92.26 -83.42)"/><path class="cls-1" d="M354.34,94.6v6.33H343.1V94.6h11.24m0-5H343.1a5,5,0,0,0-5,5v6.33a5,5,0,0,0,5,5h11.24a5,5,0,0,0,5-5V94.6a5,5,0,0,0-5-5Z" transform="translate(-92.26 -83.42)"/><path class="cls-1" d="M530.65,124.11v6.34H519.41v-6.34h11.24m0-5H519.41a5,5,0,0,0-5,5v6.34a5,5,0,0,0,5,5h11.24a5,5,0,0,0,5-5v-6.34a5,5,0,0,0-5-5Z" transform="translate(-92.26 -83.42)"/><path class="cls-1" d="M619.62,101.93v6.33H608.38v-6.33h11.24m0-5H608.38a5,5,0,0,0-5,5v6.33a5,5,0,0,0,5,5h11.24a5,5,0,0,0,5-5v-6.33a5,5,0,0,0-5-5Z" transform="translate(-92.26 -83.42)"/><path class="cls-1" d="M368.39,449.62V456H357.15v-6.33h11.24m0-5H357.15a5,5,0,0,0-5,5V456a5,5,0,0,0,5,5h11.24a5,5,0,0,0,5-5v-6.33a5,5,0,0,0-5-5Z" transform="translate(-92.26 -83.42)"/><path class="cls-1" d="M707.49,658.4v6.33H696.25V658.4h11.24m0-5H696.25a5,5,0,0,0-5,5v6.33a5,5,0,0,0,5,5h11.24a5,5,0,0,0,5-5V658.4a5,5,0,0,0-5-5Z" transform="translate(-92.26 -83.42)"/><path class="cls-1" d="M808.62,657.22v12.63h-8.17V657.22h8.17m0-5h-8.17a5,5,0,0,0-5,5v12.63a5,5,0,0,0,5,5h8.17a5,5,0,0,0,5-5V657.22a5,5,0,0,0-5-5Z" transform="translate(-92.26 -83.42)"/><path class="cls-1" d="M755.36,105.89v6.33H744.12v-6.33h11.24m0-5H744.12a5,5,0,0,0-5,5v6.33a5,5,0,0,0,5,5h11.24a5,5,0,0,0,5-5v-6.33a5,5,0,0,0-5-5Z" transform="translate(-92.26 -83.42)"/><path class="cls-1" d="M721.55,105.89v6.33h-38v-6.33h38m0-5h-38a5,5,0,0,0-5,5v6.33a5,5,0,0,0,5,5h38a5,5,0,0,0,5-5v-6.33a5,5,0,0,0-5-5Z" transform="translate(-92.26 -83.42)"/><path class="cls-1" d="M427.17,529.75v6.33H415.93v-6.33h11.24m0-5H415.93a5,5,0,0,0-5,5v6.33a5,5,0,0,0,5,5h11.24a5,5,0,0,0,5-5v-6.33a5,5,0,0,0-5-5Z" transform="translate(-92.26 -83.42)"/><path class="cls-1" d="M356.34,661.69v9.81H345.49v-9.81h10.85m0-5H345.49a5,5,0,0,0-5,5v9.81a5,5,0,0,0,5,5h10.85a5,5,0,0,0,5-5v-9.81a5,5,0,0,0-5-5Z" transform="translate(-92.26 -83.42)"/><path class="cls-1" d="M304.42,624.4v6.33h-15.8V624.4h15.8m0-5h-15.8a5,5,0,0,0-5,5v6.33a5,5,0,0,0,5,5h15.8a5,5,0,0,0,5-5V624.4a5,5,0,0,0-5-5Z" transform="translate(-92.26 -83.42)"/><path class="cls-1" d="M221.59,670v6.34H205.78V670h15.81m0-5H205.78a5,5,0,0,0-5,5v6.34a5,5,0,0,0,5,5h15.81a5,5,0,0,0,5-5V670a5,5,0,0,0-5-5Z" transform="translate(-92.26 -83.42)"/><path class="cls-1" d="M475.05,663v6.33H463.81V663h11.24m0-5H463.81a5,5,0,0,0-5,5v6.33a5,5,0,0,0,5,5h11.24a5,5,0,0,0,5-5V663a5,5,0,0,0-5-5Z" transform="translate(-92.26 -83.42)"/><path class="cls-1" d="M384.74,534.9v23.57h-6.33V534.9h6.33m0-5h-6.33a5,5,0,0,0-5,5v23.57a5,5,0,0,0,5,5h6.33a5,5,0,0,0,5-5V534.9a5,5,0,0,0-5-5Z" transform="translate(-92.26 -83.42)"/><path class="cls-1" d="M141.88,383.85v23.57h-6.34V383.85h6.34m0-5h-6.34a5,5,0,0,0-5,5v23.57a5,5,0,0,0,5,5h6.34a5,5,0,0,0,5-5V383.85a5,5,0,0,0-5-5Z" transform="translate(-92.26 -83.42)"/><path class="cls-1" d="M509.48,633v23.57h-6.34V633h6.34m0-5h-6.34a5,5,0,0,0-5,5v23.57a5,5,0,0,0,5,5h6.34a5,5,0,0,0,5-5V633a5,5,0,0,0-5-5Z" transform="translate(-92.26 -83.42)"/><path class="cls-1" d="M301.42,367.49v93.88H202.07V367.49h99.35m0-5H202.07a5,5,0,0,0-5,5v93.88a5,5,0,0,0,5,5h99.35a5,5,0,0,0,5-5V367.49a5,5,0,0,0-5-5Z" transform="translate(-92.26 -83.42)"/><path class="cls-1" d="M767.86,348.76V464.2H652.42V348.76H767.86m0-5H652.42a5,5,0,0,0-5,5V464.2a5,5,0,0,0,5,5H767.86a5,5,0,0,0,5-5V348.76a5,5,0,0,0-5-5Z" transform="translate(-92.26 -83.42)"/><rect class="cls-1" x="130.51" y="290.74" width="19.02" height="8.37" rx="2.38"/><rect class="cls-1" x="169.43" y="290.74" width="19.02" height="8.37" rx="2.38"/><path class="cls-1" d="M251.75,448.89a30.28,30.28,0,0,1-23.92-11.62,2.5,2.5,0,0,1,3.93-3.1,25.42,25.42,0,0,0,44.7-21.67,2.5,2.5,0,0,1,4.87-1.17,31,31,0,0,1,.84,7.14A30.46,30.46,0,0,1,251.75,448.89Z" transform="translate(-92.26 -83.42)"/><path class="cls-1" d="M274.9,405.35a2.48,2.48,0,0,1-2.07-1.1,25.42,25.42,0,0,0-35.68-6.6,2.5,2.5,0,1,1-2.87-4.09A30.41,30.41,0,0,1,277,401.45a2.49,2.49,0,0,1-2.07,3.9Z" transform="translate(-92.26 -83.42)"/><path class="cls-1" d="M229.79,438.22a2.5,2.5,0,0,1-2-1,30.1,30.1,0,0,1-6.51-18.8,30.47,30.47,0,0,1,6.94-19.34,2.5,2.5,0,1,1,3.86,3.18,25.44,25.44,0,0,0-5.8,16.16,25.1,25.1,0,0,0,5.44,15.7,2.51,2.51,0,0,1-.42,3.51A2.46,2.46,0,0,1,229.79,438.22Z" transform="translate(-92.26 -83.42)"/><path class="cls-1" d="M240.88,434.37a2.46,2.46,0,0,1-1.57-.56A19.66,19.66,0,0,1,232,418.47a19.86,19.86,0,0,1,11.19-17.81,2.5,2.5,0,1,1,2.17,4.5,14.77,14.77,0,0,0-2.9,24.77,2.5,2.5,0,0,1-1.58,4.44Z" transform="translate(-92.26 -83.42)"/><path class="cls-1" d="M251.75,438.22a2.5,2.5,0,0,1,0-5,14.75,14.75,0,0,0,0-29.5,2.5,2.5,0,0,1,0-5,19.75,19.75,0,0,1,0,39.5Z" transform="translate(-92.26 -83.42)"/><rect class="cls-1" x="355.42" y="124.52" width="19.02" height="8.37" rx="2.38"/><rect class="cls-1" x="389.34" y="124.52" width="19.02" height="8.37" rx="2.38"/><rect class="cls-1" x="423.26" y="124.52" width="19.02" height="8.37" rx="2.38"/><rect class="cls-1" x="627.83" y="103" width="19.02" height="8.37" rx="2.38"/><rect class="cls-1" x="661.75" y="103" width="19.02" height="8.37" rx="2.38"/><path class="cls-1" d="M491.1,270.38a2.57,2.57,0,0,1-.62-.08l-37.84-9.81a2.49,2.49,0,0,1-1.79-3,41,41,0,0,1,5.78-12.84A41.41,41.41,0,0,1,483.19,227a2.47,2.47,0,0,1,1.87.38,2.53,2.53,0,0,1,1.06,1.6l7.44,38.38a2.5,2.5,0,0,1-2.46,3ZM456.39,256.3l31.51,8.17-6.2-32a36.68,36.68,0,0,0-25.31,23.79Z" transform="translate(-92.26 -83.42)"/><path class="cls-1" d="M491.21,309.49a41.91,41.91,0,0,1-5.57-.37,2.5,2.5,0,0,1-2.15-2.81l5.14-38.76a2.48,2.48,0,0,1,2-2.12L529,258a2.49,2.49,0,0,1,2.93,2,41.26,41.26,0,0,1-6.37,31.2h0A41.32,41.32,0,0,1,491.21,309.49Zm-2.43-5.08a36.62,36.62,0,0,0,38.66-41L493.35,270Zm34.73-14.65h0Z" transform="translate(-92.26 -83.42)"/><path class="cls-1" d="M491.1,270.38a2.53,2.53,0,0,1-1.4-.43,2.45,2.45,0,0,1-1.05-1.6l-4.23-21.82a2.55,2.55,0,0,1,.39-1.88,2.48,2.48,0,0,1,1.6-1.05,24.74,24.74,0,0,1,29,19.56,2.51,2.51,0,0,1-2,2.94l-21.84,4.23A2.61,2.61,0,0,1,491.1,270.38Zm-1.26-22.19L493.08,265l16.77-3.25a19.74,19.74,0,0,0-20-13.51Z" transform="translate(-92.26 -83.42)"/><path class="cls-1" d="M486,309.14l-.33,0a41,41,0,0,1-17.81-6.76,41.63,41.63,0,0,1-17-44.92,2.5,2.5,0,0,1,3-1.79l37.83,9.81a2.5,2.5,0,0,1,1.85,2.75L488.44,307A2.5,2.5,0,0,1,486,309.14Zm-30.83-48a36.63,36.63,0,0,0,15.49,37.08,36.1,36.1,0,0,0,13.2,5.54l4.5-34Z" transform="translate(-92.26 -83.42)"/><path class="cls-1" d="M488.19,292.42a1.83,1.83,0,0,1-.33,0,24.74,24.74,0,0,1-20.7-30.72,2.5,2.5,0,0,1,3-1.79l21.52,5.57a2.5,2.5,0,0,1,1.85,2.75l-2.92,22a2.48,2.48,0,0,1-1,1.66A2.55,2.55,0,0,1,488.19,292.42Zm-16.66-27a19.74,19.74,0,0,0,8.53,18.84,19.48,19.48,0,0,0,6,2.73l2.27-17.21Z" transform="translate(-92.26 -83.42)"/><path class="cls-1" d="M491.1,270.38a2.53,2.53,0,0,1-1.4-.43,2.45,2.45,0,0,1-1.05-1.6l-4.23-21.82a2.55,2.55,0,0,1,.39-1.88,2.48,2.48,0,0,1,1.6-1.05,24.74,24.74,0,0,1,29,19.56,2.51,2.51,0,0,1-2,2.94l-21.84,4.23A2.61,2.61,0,0,1,491.1,270.38Zm-1.26-22.19L493.08,265l16.77-3.25a19.74,19.74,0,0,0-20-13.51Z" transform="translate(-92.26 -83.42)"/><path class="cls-1" d="M563.29,195.6V334.54H418.94V195.6H563.29m0-5H418.94a5,5,0,0,0-5,5V334.54a5,5,0,0,0,5,5H563.29a5,5,0,0,0,5-5V195.6a5,5,0,0,0-5-5Z" transform="translate(-92.26 -83.42)"/><path class="cls-1" d="M379.38,284.22h-3.84a8,8,0,0,1-8-8V252.71a8,8,0,0,1,8-8h3.84a8,8,0,0,1,8,8v23.51A8,8,0,0,1,379.38,284.22Zm-3.84-33.51a2,2,0,0,0-2,2v23.51a2,2,0,0,0,2,2h3.84a2,2,0,0,0,2-2V252.71a2,2,0,0,0-2-2Z" transform="translate(-92.26 -83.42)"/><path class="cls-1" d="M379.38,320.89h-3.84a8,8,0,0,1-8-8v-7.65a8,8,0,0,1,8-8h3.84a8,8,0,0,1,8,8v7.65A8,8,0,0,1,379.38,320.89Zm-3.84-17.65a2,2,0,0,0-2,2v7.65a2,2,0,0,0,2,2h3.84a2,2,0,0,0,2-2v-7.65a2,2,0,0,0-2-2Z" transform="translate(-92.26 -83.42)"/><path class="cls-1" d="M598.48,326.7h-7.65a8,8,0,0,1-8-8v-3.85a8,8,0,0,1,8-8h7.65a8,8,0,0,1,8,8v3.85A8,8,0,0,1,598.48,326.7Zm-7.65-13.85a2,2,0,0,0-2,2v3.85a2,2,0,0,0,2,2h7.65a2,2,0,0,0,2-2v-3.85a2,2,0,0,0-2-2Z" transform="translate(-92.26 -83.42)"/><path class="cls-1" d="M624.84,505.46h-7.65a8,8,0,0,1-8-8v-3.85a8,8,0,0,1,8-8h7.65a8,8,0,0,1,8,8v3.85A8,8,0,0,1,624.84,505.46Zm-7.65-13.85a2,2,0,0,0-2,2v3.85a2,2,0,0,0,2,2h7.65a2,2,0,0,0,2-2v-3.85a2,2,0,0,0-2-2Z" transform="translate(-92.26 -83.42)"/><path class="cls-1" d="M422,167.24h-3.85a8,8,0,0,1-8-8V138.93a8,8,0,0,1,8-8H422a8,8,0,0,1,8,8v20.31A8,8,0,0,1,422,167.24Zm-3.85-30.31a2,2,0,0,0-2,2v20.31a2,2,0,0,0,2,2H422a2,2,0,0,0,2-2V138.93a2,2,0,0,0-2-2Z" transform="translate(-92.26 -83.42)"/><path class="cls-1" d="M350.37,551.88v9.48H337.12v-9.48h13.25m1-6H336.12a5,5,0,0,0-5,5v11.48a5,5,0,0,0,5,5h15.25a5,5,0,0,0,5-5V550.88a5,5,0,0,0-5-5Z" transform="translate(-92.26 -83.42)"/><path class="cls-1" d="M347.12,590.1v9.48H303.65V590.1h43.47m1-6H302.65a5,5,0,0,0-5,5v11.48a5,5,0,0,0,5,5h45.47a5,5,0,0,0,5-5V589.1a5,5,0,0,0-5-5Z" transform="translate(-92.26 -83.42)"/><path class="cls-1" d="M765.77,522.67v9.49H752.52v-9.49h13.25m1-6H751.52a5,5,0,0,0-5,5v11.49a5,5,0,0,0,5,5h15.25a5,5,0,0,0,5-5V521.67a5,5,0,0,0-5-5Z" transform="translate(-92.26 -83.42)"/><path class="cls-1" d="M762.52,560.89v9.48H719.05v-9.48h43.47m1-6H718.05a5,5,0,0,0-5,5v11.48a5,5,0,0,0,5,5h45.47a5,5,0,0,0,5-5V559.89a5,5,0,0,0-5-5Z" transform="translate(-92.26 -83.42)"/><path class="cls-1" d="M235.79,519.11h-96a5,5,0,0,0-5,5v96a5,5,0,0,0,5,5h96a5,5,0,0,0,5-5v-96A5,5,0,0,0,235.79,519.11Zm0,101h-96v-96h96Z" transform="translate(-92.26 -83.42)"/><path class="cls-1" d="M186.23,575.47a9.33,9.33,0,0,0-.64-2.45,9.23,9.23,0,0,0-1.27-2.18,9.33,9.33,0,0,0-16,9.29,9.44,9.44,0,0,0,5,5.06l.29.11a9.18,9.18,0,0,0,3.3.61,9.34,9.34,0,0,0,9.32-9.34A10.14,10.14,0,0,0,186.23,575.47Zm-7.61,5.11a4.33,4.33,0,0,1-1.73.33,4.2,4.2,0,0,1-1.59-.34,4.28,4.28,0,0,1-2.34-2.35c0-.09-.07-.19-.1-.28a4.23,4.23,0,0,1,.11-3,4.31,4.31,0,0,1,6.31-2l.06,0a4.34,4.34,0,0,1-.72,7.63Z" transform="translate(-92.26 -83.42)"/><path class="cls-1" d="M207.23,564.11a9.44,9.44,0,0,0-5-5.06l-.29-.11a9.22,9.22,0,0,0-6.85.1A9.31,9.31,0,0,0,190,571.22a9.23,9.23,0,0,0,1.27,2.18,9.36,9.36,0,0,0,7.37,3.6,9.36,9.36,0,0,0,8.6-5.75,9.21,9.21,0,0,0,0-7.14Zm-4.63,5.22a4.33,4.33,0,1,1-5.65-5.67,4.36,4.36,0,0,1,1.64-.33h.09a4.45,4.45,0,0,1,2.3.71,4.37,4.37,0,0,1,1.63,2c0,.09.07.18.1.27A4.31,4.31,0,0,1,202.6,569.33Z" transform="translate(-92.26 -83.42)"/><path class="cls-1" d="M223.43,542a9.34,9.34,0,0,0-12.18-5.08,9.34,9.34,0,0,0-5.08,12.18,9.36,9.36,0,0,0,5,5.06l.3.12a9.13,9.13,0,0,0,3.29.61A9.32,9.32,0,0,0,223.43,542Zm-4.63,5.22a4.35,4.35,0,0,1-4.07,2.67,4.4,4.4,0,0,1-1.59-.34,4.31,4.31,0,0,1-2.34-2.35,2.31,2.31,0,0,1-.1-.28,4.31,4.31,0,0,1,4.1-5.7,4.4,4.4,0,0,1,1.67.33,4.33,4.33,0,0,1,2.33,5.67Z" transform="translate(-92.26 -83.42)"/><path class="cls-1" d="M169.39,595.12a8.87,8.87,0,0,0-1.3-2.21,9.29,9.29,0,0,0-4-2.95,9.2,9.2,0,0,0-6.84.09,9.32,9.32,0,0,0-5.07,12.18,9.39,9.39,0,0,0,8.62,5.79,9.34,9.34,0,0,0,9.33-9.35A9.24,9.24,0,0,0,169.39,595.12Zm-7,7.56a4.27,4.27,0,0,1-3.31,0,4.33,4.33,0,0,1-2.33-5.67,4.26,4.26,0,0,1,2.34-2.34,4.36,4.36,0,0,1,1.65-.32h.08a4.35,4.35,0,0,1,3.93,2.68,2.31,2.31,0,0,1,.1.28A4.32,4.32,0,0,1,162.41,602.68Z" transform="translate(-92.26 -83.42)"/><path class="cls-1" d="M176.89,580.91l-3.22,4.39-5.58,7.61-3.22,4.4a2.31,2.31,0,0,0-.1-.28,4.35,4.35,0,0,0-3.93-2.68l3.21-4.39,5.59-7.62,3.22-4.4c0,.09.06.19.1.28a4.28,4.28,0,0,0,2.34,2.35A4.2,4.2,0,0,0,176.89,580.91Z" transform="translate(-92.26 -83.42)"/><path class="cls-1" d="M196.29,571.32l-5,2.08-5,2.07-5,2.07a4.31,4.31,0,0,0-1.84-4.59l-.06,0,5-2.08,5-2.06,5-2.08a4.29,4.29,0,0,0,1.91,4.62Z" transform="translate(-92.26 -83.42)"/><path class="cls-1" d="M214.73,549.9l-3.22,4.39-5.58,7.61-3.22,4.39c0-.09-.06-.18-.1-.27a4.37,4.37,0,0,0-1.63-2,4.45,4.45,0,0,0-2.3-.71l3.22-4.39,5.57-7.61,3.23-4.4a2.31,2.31,0,0,0,.1.28,4.31,4.31,0,0,0,2.34,2.35A4.4,4.4,0,0,0,214.73,549.9Z" transform="translate(-92.26 -83.42)"/><rect class="cls-1" x="87.31" y="520.09" width="19.02" height="8.37" rx="2.38"/><rect class="cls-1" x="118.07" y="520.09" width="19.02" height="8.37" rx="2.38"/><rect class="cls-1" x="53.25" y="448.94" width="19.02" height="8.37" rx="2.38"/><rect class="cls-1" x="84.01" y="448.94" width="19.02" height="8.37" rx="2.38"/><path class="cls-1" d="M342.82,629a9.52,9.52,0,0,0-9.52,9.51,9.24,9.24,0,0,0,.41,2.75,9.55,9.55,0,0,0,9.11,6.77,9.52,9.52,0,0,0,0-19Zm0,14a4.46,4.46,0,0,1-2.09-.52,4.51,4.51,0,0,1-2.43-4c0-.14,0-.28,0-.41a4.51,4.51,0,1,1,4.5,4.93Z" transform="translate(-92.26 -83.42)"/><path class="cls-1" d="M340.73,642.51l-4.36,3-11.79,8.06a2.54,2.54,0,0,1-1.41.43H293.65a2.5,2.5,0,0,1,0-5H322.4l11.31-7.73,4.61-3.16c0,.13,0,.27,0,.41A4.51,4.51,0,0,0,340.73,642.51Z" transform="translate(-92.26 -83.42)"/><path class="cls-1" d="M308.86,665H292.94a2.5,2.5,0,0,1,0-5h15.92a2.5,2.5,0,0,1,0,5Z" transform="translate(-92.26 -83.42)"/><path class="cls-1" d="M301.83,676.5h-8.89a2.5,2.5,0,0,1,0-5h8.89a2.5,2.5,0,0,1,0,5Z" transform="translate(-92.26 -83.42)"/><path class="cls-1" d="M485.69,368.4h-6.11a2.5,2.5,0,0,1,0-5h6.11a2.5,2.5,0,0,1,0,5Z" transform="translate(-92.26 -83.42)"/><path class="cls-1" d="M546.69,368.4H510.58a2.5,2.5,0,0,1,0-5h36.11a2.5,2.5,0,0,1,0,5Z" transform="translate(-92.26 -83.42)"/><path class="cls-1" d="M743.93,319.89H707.82a2.5,2.5,0,0,1,0-5h36.11a2.5,2.5,0,0,1,0,5Z" transform="translate(-92.26 -83.42)"/><path class="cls-1" d="M693.93,319.89h-6.11a2.5,2.5,0,0,1,0-5h6.11a2.5,2.5,0,0,1,0,5Z" transform="translate(-92.26 -83.42)"/><path class="cls-1" d="M653.93,319.89H637.82a2.5,2.5,0,0,1,0-5h16.11a2.5,2.5,0,0,1,0,5Z" transform="translate(-92.26 -83.42)"/><path class="cls-1" d="M660.66,149H634.54a2.5,2.5,0,0,1,0-5h26.12a2.5,2.5,0,0,1,0,5Z" transform="translate(-92.26 -83.42)"/><path class="cls-1" d="M503.31,505.85H487.2a2.5,2.5,0,1,1,0-5h16.11a2.5,2.5,0,1,1,0,5Z" transform="translate(-92.26 -83.42)"/><path class="cls-1" d="M423.31,505.85H407.2a2.5,2.5,0,1,1,0-5h16.11a2.5,2.5,0,1,1,0,5Z" transform="translate(-92.26 -83.42)"/><path class="cls-1" d="M453.31,505.85H447.2a2.5,2.5,0,1,1,0-5h6.11a2.5,2.5,0,1,1,0,5Z" transform="translate(-92.26 -83.42)"/><path class="cls-1" d="M544.31,505.85H518.2a2.5,2.5,0,0,1,0-5h26.11a2.5,2.5,0,0,1,0,5Z" transform="translate(-92.26 -83.42)"/><path class="cls-1" d="M777,498H750.84a2.5,2.5,0,0,1,0-5H777a2.5,2.5,0,0,1,0,5Z" transform="translate(-92.26 -83.42)"/><path class="cls-1" d="M733,498H715.84a2.5,2.5,0,0,1,0-5H733a2.5,2.5,0,0,1,0,5Z" transform="translate(-92.26 -83.42)"/><path class="cls-1" d="M660,498h-7.12a2.5,2.5,0,0,1,0-5H660a2.5,2.5,0,0,1,0,5Z" transform="translate(-92.26 -83.42)"/><path class="cls-1" d="M465.69,368.4H449.58a2.5,2.5,0,0,1,0-5h16.11a2.5,2.5,0,0,1,0,5Z" transform="translate(-92.26 -83.42)"/><path class="cls-1" d="M778.87,291H626a7.51,7.51,0,0,1-7.5-7.5v-103A7.51,7.51,0,0,1,626,173H778.87a7.5,7.5,0,0,1,7.5,7.5v103A7.5,7.5,0,0,1,778.87,291ZM626,178a2.51,2.51,0,0,0-2.5,2.5v103A2.51,2.51,0,0,0,626,286H778.87a2.5,2.5,0,0,0,2.5-2.5v-103a2.5,2.5,0,0,0-2.5-2.5Z" transform="translate(-92.26 -83.42)"/><path class="cls-1" d="M652.31,274.69h-8.06a7.52,7.52,0,0,1-7.5-7.5V206.26a7.51,7.51,0,0,1,7.5-7.5h8.06a7.51,7.51,0,0,1,7.5,7.5v60.93A7.52,7.52,0,0,1,652.31,274.69Zm-8.06-70.93a2.5,2.5,0,0,0-2.5,2.5v60.93a2.5,2.5,0,0,0,2.5,2.5h8.06a2.5,2.5,0,0,0,2.5-2.5V206.26a2.5,2.5,0,0,0-2.5-2.5Z" transform="translate(-92.26 -83.42)"/><path class="cls-1" d="M688.42,274.69h-8.06a7.52,7.52,0,0,1-7.5-7.5v-32.1a7.52,7.52,0,0,1,7.5-7.5h8.06a7.51,7.51,0,0,1,7.5,7.5v32.1A7.51,7.51,0,0,1,688.42,274.69Zm-8.06-42.1a2.51,2.51,0,0,0-2.5,2.5v32.1a2.51,2.51,0,0,0,2.5,2.5h8.06a2.5,2.5,0,0,0,2.5-2.5v-32.1a2.5,2.5,0,0,0-2.5-2.5Z" transform="translate(-92.26 -83.42)"/><path class="cls-1" d="M724.53,274.69h-8a7.51,7.51,0,0,1-7.5-7.5V222.48a7.51,7.51,0,0,1,7.5-7.5h8a7.51,7.51,0,0,1,7.5,7.5v44.71A7.51,7.51,0,0,1,724.53,274.69Zm-8-54.71a2.5,2.5,0,0,0-2.5,2.5v44.71a2.5,2.5,0,0,0,2.5,2.5h8a2.5,2.5,0,0,0,2.5-2.5V222.48a2.5,2.5,0,0,0-2.5-2.5Z" transform="translate(-92.26 -83.42)"/><path class="cls-1" d="M760.65,274.69h-8.06a7.51,7.51,0,0,1-7.5-7.5v-11.7a7.51,7.51,0,0,1,7.5-7.5h8.06a7.52,7.52,0,0,1,7.5,7.5v11.7A7.52,7.52,0,0,1,760.65,274.69ZM752.59,253a2.5,2.5,0,0,0-2.5,2.5v11.7a2.5,2.5,0,0,0,2.5,2.5h8.06a2.5,2.5,0,0,0,2.5-2.5v-11.7a2.5,2.5,0,0,0-2.5-2.5Z" transform="translate(-92.26 -83.42)"/><path class="cls-1" d="M700.66,149H684.54a2.5,2.5,0,0,1,0-5h16.12a2.5,2.5,0,0,1,0,5Z" transform="translate(-92.26 -83.42)"/><path class="cls-1" d="M770.66,149H744.54a2.5,2.5,0,0,1,0-5h26.12a2.5,2.5,0,0,1,0,5Z" transform="translate(-92.26 -83.42)"/><path class="cls-1" d="M813,293.76a2.5,2.5,0,0,1-2.5-2.5V271.75a2.5,2.5,0,0,1,5,0v19.51A2.5,2.5,0,0,1,813,293.76Z" transform="translate(-92.26 -83.42)"/><path class="cls-1" d="M783.93,319.89h-6.11a2.5,2.5,0,0,1,0-5h6.11a2.5,2.5,0,0,1,0,5Z" transform="translate(-92.26 -83.42)"/><path class="cls-1" d="M724.5,443H695.78a2.5,2.5,0,0,1-1.95-.94l-3-3.75a2.5,2.5,0,1,1,3.91-3.11L697,438H723.3l16.41-20.58-3.34-14.62a2.5,2.5,0,1,1,4.87-1.12l3.61,15.8a2.52,2.52,0,0,1-.48,2.12l-17.91,22.46A2.53,2.53,0,0,1,724.5,443Z" transform="translate(-92.26 -83.42)"/><path class="cls-1" d="M683.47,427.57a2.49,2.49,0,0,1-2-.94l-5.59-7a2.52,2.52,0,0,1-.49-2.12l6.4-28a2.48,2.48,0,0,1,1.35-1.69l25.88-12.47a2.5,2.5,0,0,1,2.17,0l11.36,5.48a2.5,2.5,0,0,1-2.17,4.5l-10.28-4.95-23.71,11.42-5.85,25.65,4.84,6.08A2.5,2.5,0,0,1,685,427,2.46,2.46,0,0,1,683.47,427.57Z" transform="translate(-92.26 -83.42)"/><path class="cls-1" d="M718.41,429.68H701.87a2.5,2.5,0,0,1,0-5h15.34L726,413.63l-2-9a2.5,2.5,0,0,1,4.87-1.11l2.32,10.14a2.5,2.5,0,0,1-.49,2.11l-10.31,12.94A2.53,2.53,0,0,1,718.41,429.68Z" transform="translate(-92.26 -83.42)"/><path class="cls-1" d="M695.62,421.84a2.48,2.48,0,0,1-2-.94l-4.07-5.1a2.5,2.5,0,0,1-.48-2.11l3.68-16.13a2.52,2.52,0,0,1,1.35-1.7l14.91-7.18a2.5,2.5,0,0,1,2.17,0l9.46,4.56a2.5,2.5,0,0,1-2.17,4.51l-8.38-4-12.73,6.13-3.15,13.79,3.31,4.15a2.5,2.5,0,0,1-2,4.06Z" transform="translate(-92.26 -83.42)"/><polygon class="cls-1" points="617.88 318.84 612.29 321.53 610.91 327.58 614.77 332.43 620.98 332.43 624.85 327.58 623.47 321.53 617.88 318.84"/><rect class="cls-1" x="588.9" y="278.3" width="19.02" height="8.37" rx="2.38"/><rect class="cls-1" x="627.83" y="278.3" width="19.02" height="8.37" rx="2.38"/><path class="cls-1" d="M725.09,596.89a9.52,9.52,0,1,0,6.44,16.5,9.41,9.41,0,0,0,2.66-4.24,9.23,9.23,0,0,0,.41-2.74A9.53,9.53,0,0,0,725.09,596.89Zm4.51,9.52a4.5,4.5,0,0,1-2.43,4,4.42,4.42,0,0,1-2.08.52,4.52,4.52,0,1,1,4.49-4.92C729.59,606.13,729.6,606.27,729.6,606.41Z" transform="translate(-92.26 -83.42)"/><path class="cls-1" d="M776.75,619.39a2.49,2.49,0,0,1-2.5,2.5H744.73a2.55,2.55,0,0,1-1.41-.44l-11.79-8.06-4.36-3a4.5,4.5,0,0,0,2.43-4c0-.14,0-.28,0-.41l4.61,3.15,11.32,7.74h28.74A2.49,2.49,0,0,1,776.75,619.39Z" transform="translate(-92.26 -83.42)"/><path class="cls-1" d="M775,632.87H759.05a2.5,2.5,0,0,1,0-5H775a2.5,2.5,0,0,1,0,5Z" transform="translate(-92.26 -83.42)"/><path class="cls-1" d="M775,644.39h-8.89a2.5,2.5,0,0,1,0-5H775a2.5,2.5,0,0,1,0,5Z" transform="translate(-92.26 -83.42)"/></svg>